<svg xmlns="http://www.w3.org/2000/svg" viewBox="0 0 590 128" role="img" aria-label="PresetHub">
  <g fill="none" stroke="#111113" stroke-linejoin="round">
    <rect x="10" y="18" width="92" height="92" rx="24" fill="#111113" stroke="none"/>
    <path d="M34 45.5 56 32l22 13.5v27L56 86 34 72.5v-27Z" stroke="#fff" stroke-width="6"/>
    <path d="M56 32v54M35.2 46.2 56 58l20.8-11.8M35.2 72.2 56 58l20.8 14.2" stroke="#fff" stroke-width="4.5" stroke-linecap="round" opacity=".78"/>
  </g>
  <g fill="#111113">
    <path d="M142 90V38h23.1c5.9 0 10.6 1.7 14.2 5.1 3.6 3.3 5.4 7.8 5.4 13.3 0 5.6-1.8 10.1-5.4 13.4-3.6 3.3-8.3 5-14.2 5h-11.4V90H142Zm11.7-25.4h10.1c2.9 0 5.2-.7 6.7-2.2 1.6-1.5 2.4-3.5 2.4-6s-.8-4.5-2.4-6c-1.5-1.5-3.8-2.3-6.7-2.3h-10.1v16.5Z"/>
    <path d="M191.2 90V51.3h10.9l.4 6.7c1-2.3 2.6-4.1 4.7-5.4 2.1-1.3 4.5-2 7.3-2h3.2v10.5h-4.2c-3.2 0-5.8.8-7.8 2.5-1.9 1.7-2.9 4.5-2.9 8.5V90h-11.6Z"/>
    <path d="M241.7 91c-6.1 0-11.1-1.9-15-5.7-3.9-3.8-5.8-8.6-5.8-14.5 0-6 1.9-10.9 5.7-14.7 3.8-3.9 8.8-5.8 14.9-5.8 5.9 0 10.7 1.8 14.3 5.5 3.7 3.6 5.5 8.3 5.5 14.1 0 .7 0 1.4-.1 2.2 0 .7-.1 1.5-.2 2.3h-28.6c.3 2.7 1.3 4.8 3.1 6.2 1.8 1.4 3.9 2.1 6.4 2.1 1.9 0 3.5-.4 4.8-1.2 1.3-.9 2.3-2 3-3.3h10.7c-.8 2.4-2.1 4.5-3.8 6.5-1.7 1.9-3.8 3.5-6.3 4.6-2.5 1.1-5.4 1.7-8.6 1.7Zm.1-32.5c-2.3 0-4.3.6-6 1.9-1.7 1.3-2.8 3.2-3.3 5.8h17.1c-.1-2.3-.9-4.2-2.4-5.6-1.5-1.4-3.3-2.1-5.4-2.1Z"/>
    <path d="M282.7 91c-5.3 0-9.7-1.2-13-3.6-3.3-2.5-5.3-5.8-5.8-10h11.5c.4 1.6 1.2 2.9 2.5 3.9 1.3.9 2.9 1.4 4.7 1.4 1.9 0 3.3-.4 4.2-1.1.9-.7 1.4-1.7 1.4-2.8 0-1.6-.8-2.7-2.5-3.3-1.6-.6-3.9-1.2-6.8-1.8-2-.4-3.9-.9-5.8-1.5-1.9-.6-3.6-1.4-5.1-2.4-1.5-1-2.7-2.2-3.6-3.7-.9-1.5-1.3-3.2-1.3-5.3 0-3.8 1.5-6.9 4.6-9.4 3.1-2.5 7.3-3.8 12.7-3.8 5 0 8.9 1.1 11.9 3.4 3 2.2 4.8 5.4 5.3 9.4h-10.8c-.6-3-2.7-4.5-6.4-4.5-1.8 0-3.2.3-4.1 1-.9.6-1.4 1.5-1.4 2.6 0 1.2.8 2.1 2.5 2.8 1.7.7 3.9 1.3 6.8 1.9 3.2.7 5.9 1.4 8 2.3 2.2.8 3.9 2.1 5.1 3.7 1.2 1.6 1.8 3.8 1.8 6.5.1 2.7-.7 5.1-2.2 7.2-1.5 2.1-3.6 3.7-6.4 4.9-2.7 1.2-5.9 1.8-9.6 1.8Z"/>
    <path d="M324.7 90c-4.3 0-7.8-1-10.4-3.1-2.6-2.1-3.9-5.8-3.9-11.1V60.9h-6.6v-9.6h6.6l1.3-10.5H322v10.5h10.3v9.6H322v15c0 1.8.4 3 1.2 3.7.8.7 2.2 1 4.2 1h4.7V90h-7.4Z"/>
    <path d="M358.3 91c-6.1 0-11.1-1.9-15-5.7-3.9-3.8-5.8-8.6-5.8-14.5 0-6 1.9-10.9 5.7-14.7 3.8-3.9 8.8-5.8 14.9-5.8 5.9 0 10.7 1.8 14.3 5.5 3.7 3.6 5.5 8.3 5.5 14.1 0 .7 0 1.4-.1 2.2 0 .7-.1 1.5-.2 2.3H349c.3 2.7 1.3 4.8 3.1 6.2 1.8 1.4 3.9 2.1 6.4 2.1 1.9 0 3.5-.4 4.8-1.2 1.3-.9 2.3-2 3-3.3H377c-.8 2.4-2.1 4.5-3.8 6.5-1.7 1.9-3.8 3.5-6.3 4.6-2.5 1.1-5.4 1.7-8.6 1.7Zm.1-32.5c-2.3 0-4.3.6-6 1.9-1.7 1.3-2.8 3.2-3.3 5.8h17.1c-.1-2.3-.9-4.2-2.4-5.6-1.5-1.4-3.3-2.1-5.4-2.1Z"/>
    <path d="M385.4 90V51.3h10.9l.4 5.2c1.2-1.9 2.9-3.4 4.9-4.5 2-1.1 4.4-1.7 7.1-1.7 4.7 0 8.5 1.9 11.4 5.6 2.9 3.7 4.4 8.6 4.4 14.7 0 6.1-1.5 11-4.4 14.8-2.9 3.7-6.7 5.6-11.5 5.6-2.5 0-4.7-.5-6.7-1.5-2-1-3.6-2.4-4.8-4.2V106h-11.7V90Zm19.5-9.2c2.3 0 4.2-.9 5.7-2.7 1.5-1.8 2.2-4.3 2.2-7.5 0-3.1-.7-5.6-2.2-7.4-1.5-1.8-3.4-2.7-5.7-2.7-2.3 0-4.2.9-5.7 2.7-1.5 1.8-2.2 4.3-2.2 7.4 0 3.2.7 5.7 2.2 7.5 1.5 1.8 3.4 2.7 5.7 2.7Z"/>
    <path d="M433.7 90V38h11.7v20.3h20.5V38h11.7v52h-11.7V68h-20.5v22h-11.7Z"/>
    <path d="M502.9 91c-4.8 0-8.6-1.5-11.4-4.5-2.8-3-4.2-7.4-4.2-13.3V51.3H499v20.6c0 3.1.6 5.4 1.9 6.9 1.3 1.5 3.1 2.3 5.5 2.3 2.5 0 4.5-.9 6-2.6 1.5-1.7 2.3-4.2 2.3-7.4V51.3h11.7V90H516l-.8-5.8c-1.2 2-2.9 3.7-5 4.9-2.1 1.3-4.5 1.9-7.3 1.9Z"/>
    <path d="M536.2 90V38h11.7v18.4c1.2-1.8 2.8-3.3 4.9-4.4 2-1.1 4.3-1.7 6.9-1.7 4.7 0 8.5 1.9 11.4 5.6 2.9 3.7 4.4 8.6 4.4 14.7 0 6.1-1.5 11-4.4 14.8-2.9 3.7-6.7 5.6-11.4 5.6-2.8 0-5.2-.6-7.3-1.8-2.1-1.2-3.8-2.8-5-4.8l-.8 5.6h-10.4Zm19.5-9.2c2.3 0 4.2-.9 5.7-2.7 1.5-1.8 2.2-4.3 2.2-7.5 0-3.1-.7-5.6-2.2-7.4-1.5-1.8-3.4-2.7-5.7-2.7-2.3 0-4.2.9-5.7 2.7-1.5 1.8-2.2 4.3-2.2 7.4 0 3.2.7 5.7 2.2 7.5 1.5 1.8 3.4 2.7 5.7 2.7Z"/>
  </g>
</svg>
